<svg width="150" height="52" viewBox="0 0 150 52" fill="none" xmlns="http://www.w3.org/2000/svg">
<path d="M18.9473 44.9609L20.2363 40.6602H21.7539L19.2344 47.9609C18.8477 49.0273 18.1914 49.5605 17.2656 49.5605C17.0586 49.5605 16.8301 49.5254 16.5801 49.4551V48.3535L16.8496 48.3711C17.209 48.3711 17.4785 48.3047 17.6582 48.1719C17.8418 48.043 17.9863 47.8242 18.0918 47.5156L18.2969 46.9707L16.0703 40.6602H17.6055L18.9473 44.9609ZM26.3418 45.248L28.2168 40.6602H29.998V47H28.5742V42.8047L26.8281 47H25.8613L24.1094 42.7812V47H22.6855V40.6602H24.4785L26.3418 45.248ZM36.9707 47H35.5469V44.4395H33.0801V47H31.6562V40.6602H33.0801V43.3027H35.5469V40.6602H36.9707V47ZM40.0234 42.6758H41.418C41.9375 42.6758 42.3906 42.7656 42.7773 42.9453C43.1641 43.125 43.457 43.377 43.6562 43.7012C43.8594 44.0254 43.9609 44.4023 43.9609 44.832C43.9609 45.4844 43.7305 46.0078 43.2695 46.4023C42.8086 46.7969 42.1953 46.9961 41.4297 47H38.5996V40.6602H40.0234V42.6758ZM46.4395 47H45.0156V40.6602H46.4395V47ZM40.0234 43.8184V45.8633H41.4121C41.7598 45.8633 42.0332 45.7773 42.2324 45.6055C42.4355 45.4297 42.5371 45.1816 42.5371 44.8613C42.5371 44.541 42.4375 44.2891 42.2383 44.1055C42.043 43.918 41.7773 43.8223 41.4414 43.8184H40.0234ZM50.9395 47.1172C50.0371 47.1172 49.3047 46.834 48.7422 46.2676C48.1836 45.6973 47.9043 44.9395 47.9043 43.9941V43.8184C47.9043 43.1855 48.0254 42.6211 48.2676 42.125C48.5137 41.625 48.8574 41.2363 49.2988 40.959C49.7402 40.6816 50.2324 40.543 50.7754 40.543C51.6387 40.543 52.3047 40.8184 52.7734 41.3691C53.2461 41.9199 53.4824 42.6992 53.4824 43.707V44.2812H49.3398C49.3828 44.8047 49.5566 45.2188 49.8613 45.5234C50.1699 45.8281 50.5566 45.9805 51.0215 45.9805C51.6738 45.9805 52.2051 45.7168 52.6152 45.1895L53.3828 45.9219C53.1289 46.3008 52.7891 46.5957 52.3633 46.8066C51.9414 47.0137 51.4668 47.1172 50.9395 47.1172ZM50.7695 41.6855C50.3789 41.6855 50.0625 41.8223 49.8203 42.0957C49.582 42.3691 49.4297 42.75 49.3633 43.2383H52.0762V43.1328C52.0449 42.6562 51.918 42.2969 51.6953 42.0547C51.4727 41.8086 51.1641 41.6855 50.7695 41.6855ZM62.5703 41.791H60.5137V47H59.0898V41.791H57.0566V40.6602H62.5703V41.791ZM65.9395 47.1172C65.0371 47.1172 64.3047 46.834 63.7422 46.2676C63.1836 45.6973 62.9043 44.9395 62.9043 43.9941V43.8184C62.9043 43.1855 63.0254 42.6211 63.2676 42.125C63.5137 41.625 63.8574 41.2363 64.2988 40.959C64.7402 40.6816 65.2324 40.543 65.7754 40.543C66.6387 40.543 67.3047 40.8184 67.7734 41.3691C68.2461 41.9199 68.4824 42.6992 68.4824 43.707V44.2812H64.3398C64.3828 44.8047 64.5566 45.2188 64.8613 45.5234C65.1699 45.8281 65.5566 45.9805 66.0215 45.9805C66.6738 45.9805 67.2051 45.7168 67.6152 45.1895L68.3828 45.9219C68.1289 46.3008 67.7891 46.5957 67.3633 46.8066C66.9414 47.0137 66.4668 47.1172 65.9395 47.1172ZM65.7695 41.6855C65.3789 41.6855 65.0625 41.8223 64.8203 42.0957C64.582 42.3691 64.4297 42.75 64.3633 43.2383H67.0762V43.1328C67.0449 42.6562 66.918 42.2969 66.6953 42.0547C66.4727 41.8086 66.1641 41.6855 65.7695 41.6855ZM71.8691 42.7461L73.0762 40.6602H74.6582L72.7188 43.7832L74.7227 47H73.1523L71.8867 44.832L70.627 47H69.0449L71.0488 43.7832L69.1152 40.6602H70.6855L71.8691 42.7461ZM80.998 47H79.5742V44.4395H77.1074V47H75.6836V40.6602H77.1074V43.3027H79.5742V40.6602H80.998V47ZM82.252 43.7715C82.252 43.1504 82.375 42.5918 82.6211 42.0957C82.8672 41.5957 83.2129 41.2129 83.6582 40.9473C84.1035 40.6777 84.6152 40.543 85.1934 40.543C86.0488 40.543 86.7422 40.8184 87.2734 41.3691C87.8086 41.9199 88.0977 42.6504 88.1406 43.5605L88.1465 43.8945C88.1465 44.5195 88.0254 45.0781 87.7832 45.5703C87.5449 46.0625 87.2012 46.4434 86.752 46.7129C86.3066 46.9824 85.791 47.1172 85.2051 47.1172C84.3105 47.1172 83.5938 46.8203 83.0547 46.2266C82.5195 45.6289 82.252 44.834 82.252 43.8418V43.7715ZM83.6758 43.8945C83.6758 44.5469 83.8105 45.0586 84.0801 45.4297C84.3496 45.7969 84.7246 45.9805 85.2051 45.9805C85.6855 45.9805 86.0586 45.793 86.3242 45.418C86.5938 45.043 86.7285 44.4941 86.7285 43.7715C86.7285 43.1309 86.5898 42.623 86.3125 42.248C86.0391 41.873 85.666 41.6855 85.1934 41.6855C84.7285 41.6855 84.3594 41.8711 84.0859 42.2422C83.8125 42.6094 83.6758 43.1602 83.6758 43.8945ZM94.6445 40.6602V47H93.2207V41.8086H91.4277L91.3105 44.0176C91.2363 45.0801 91.0312 45.8438 90.6953 46.3086C90.3633 46.7695 89.8535 47 89.166 47H88.7266L88.7207 45.8164L89.0137 45.7871C89.3262 45.7441 89.5527 45.5547 89.6934 45.2188C89.8379 44.8789 89.9297 44.2617 89.9688 43.3672L90.0859 40.6602H94.6445ZM95.8926 43.7715C95.8926 43.1504 96.0156 42.5918 96.2617 42.0957C96.5078 41.5957 96.8535 41.2129 97.2988 40.9473C97.7441 40.6777 98.2559 40.543 98.834 40.543C99.6895 40.543 100.383 40.8184 100.914 41.3691C101.449 41.9199 101.738 42.6504 101.781 43.5605L101.787 43.8945C101.787 44.5195 101.666 45.0781 101.424 45.5703C101.186 46.0625 100.842 46.4434 100.393 46.7129C99.9473 46.9824 99.4316 47.1172 98.8457 47.1172C97.9512 47.1172 97.2344 46.8203 96.6953 46.2266C96.1602 45.6289 95.8926 44.834 95.8926 43.8418V43.7715ZM97.3164 43.8945C97.3164 44.5469 97.4512 45.0586 97.7207 45.4297C97.9902 45.7969 98.3652 45.9805 98.8457 45.9805C99.3262 45.9805 99.6992 45.793 99.9648 45.418C100.234 45.043 100.369 44.4941 100.369 43.7715C100.369 43.1309 100.23 42.623 99.9531 42.248C99.6797 41.873 99.3066 41.6855 98.834 41.6855C98.3691 41.6855 98 41.8711 97.7266 42.2422C97.4531 42.6094 97.3164 43.1602 97.3164 43.8945ZM107.213 41.8086H104.459V47H103.041V40.6602H107.213V41.8086ZM111.977 40.6602H113.395V47H111.977V42.7695L109.492 47H108.074V40.6602H109.492V44.8906L111.977 40.6602ZM118.867 40.6602H120.285V47H118.867V42.7695L116.383 47H114.965V40.6602H116.383V44.8906L118.867 40.6602Z" fill="#788891"/>
  <path d="M24.9355 24.3369C24.9355 23.6126 24.7484 23.0674 24.374 22.7012C24.0078 22.3268 23.3364 21.9403 22.3599 21.5415C20.5776 20.866 19.2959 20.0767 18.5146 19.1733C17.7334 18.2619 17.3428 17.1877 17.3428 15.9507C17.3428 14.4533 17.8717 13.2529 18.9297 12.3496C19.9958 11.4382 21.3467 10.9824 22.9824 10.9824C24.0729 10.9824 25.0454 11.2144 25.8999 11.6782C26.7544 12.134 27.4095 12.7809 27.8652 13.6191C28.3291 14.4574 28.561 15.4095 28.561 16.4756H24.9844C24.9844 15.6455 24.8053 15.0148 24.4473 14.5835C24.0973 14.144 23.5887 13.9243 22.9214 13.9243C22.2948 13.9243 21.8065 14.1115 21.4565 14.4858C21.1066 14.8521 20.9316 15.3485 20.9316 15.9751C20.9316 16.4634 21.127 16.9069 21.5176 17.3057C21.9082 17.6963 22.5999 18.1032 23.5928 18.5264C25.3262 19.153 26.5835 19.922 27.3647 20.8335C28.1541 21.745 28.5488 22.9046 28.5488 24.3125C28.5488 25.8587 28.0565 27.0672 27.0718 27.938C26.0871 28.8088 24.7484 29.2441 23.0557 29.2441C21.9082 29.2441 20.8625 29.0081 19.9185 28.5361C18.9744 28.0641 18.2339 27.3887 17.6968 26.5098C17.1678 25.6309 16.9033 24.5933 16.9033 23.397H20.5044C20.5044 24.4224 20.7038 25.167 21.1025 25.6309C21.5013 26.0947 22.1523 26.3267 23.0557 26.3267C24.3089 26.3267 24.9355 25.6634 24.9355 24.3369ZM34.0054 15.792L34.103 17.0127C34.8761 16.0361 35.8975 15.5479 37.167 15.5479C38.4854 15.5479 39.4172 16.1419 39.9624 17.3301C40.7192 16.1419 41.7975 15.5479 43.1973 15.5479C45.5085 15.5479 46.6925 17.147 46.7495 20.3452V29H43.2949V20.5649C43.2949 19.8 43.1891 19.2547 42.9775 18.9292C42.766 18.6037 42.4079 18.4409 41.9033 18.4409C41.2604 18.4409 40.7803 18.8356 40.4629 19.625L40.4873 20.04V29H37.0327V20.5894C37.0327 19.8325 36.931 19.2873 36.7275 18.9536C36.5241 18.6118 36.1619 18.4409 35.6411 18.4409C35.047 18.4409 34.575 18.7624 34.2251 19.4053V29H30.7705V15.792H34.0054ZM55.5874 29C55.4897 28.7965 55.3921 28.4548 55.2944 27.9746C54.6759 28.821 53.8377 29.2441 52.7798 29.2441C51.673 29.2441 50.7534 28.8779 50.021 28.1455C49.2967 27.4131 48.9346 26.465 48.9346 25.3013C48.9346 23.9178 49.374 22.8477 50.2529 22.0908C51.14 21.334 52.4136 20.9474 54.0737 20.9312H55.1235V19.8691C55.1235 19.2751 55.0218 18.856 54.8184 18.6118C54.6149 18.3677 54.3179 18.2456 53.9272 18.2456C53.0646 18.2456 52.6333 18.7502 52.6333 19.7593H49.1787C49.1787 18.5386 49.6344 17.5335 50.5459 16.7441C51.4655 15.9466 52.6252 15.5479 54.0249 15.5479C55.4735 15.5479 56.5924 15.9263 57.3818 16.6831C58.1794 17.4318 58.5781 18.506 58.5781 19.9058V26.1191C58.5944 27.2585 58.7572 28.1496 59.0664 28.7925V29H55.5874ZM53.5488 26.5342C53.9313 26.5342 54.2568 26.4569 54.5254 26.3022C54.7939 26.1476 54.9933 25.9645 55.1235 25.7529V23.0063H54.2935C53.7075 23.0063 53.2437 23.1935 52.9019 23.5679C52.5682 23.9422 52.4014 24.4427 52.4014 25.0693C52.4014 26.0459 52.7839 26.5342 53.5488 26.5342ZM67.5991 19.1245L66.4517 19.0269C65.5076 19.0269 64.8688 19.4419 64.5352 20.272V29H61.0684V15.792H64.3276L64.4253 17.2202C64.9705 16.1053 65.7233 15.5479 66.6836 15.5479C67.0742 15.5479 67.3916 15.6007 67.6357 15.7065L67.5991 19.1245ZM74.0078 12.5449V15.792H75.7778V18.3921H74.0078V24.9473C74.0078 25.4681 74.077 25.8262 74.2153 26.0215C74.3618 26.2168 74.6385 26.3145 75.0454 26.3145C75.3791 26.3145 75.6517 26.286 75.8633 26.229L75.8389 28.9146C75.2529 29.1343 74.6182 29.2441 73.9346 29.2441C71.7048 29.2441 70.5776 27.9665 70.5532 25.4111V18.3921H69.0273V15.792H70.5532V12.5449H74.0078ZM83.6147 29V11.2266H88.3145C90.3896 11.2266 92.0417 11.8857 93.2705 13.2041C94.5075 14.5225 95.1382 16.3291 95.1626 18.624V21.5049C95.1626 23.8405 94.5441 25.6756 93.3071 27.0103C92.0783 28.3368 90.3815 29 88.2168 29H83.6147ZM87.2036 14.2173V26.0215H88.2778C89.4741 26.0215 90.3164 25.7082 90.8047 25.0815C91.293 24.4468 91.5493 23.3563 91.5737 21.8101V18.7217C91.5737 17.0615 91.3418 15.9059 90.8779 15.2549C90.4141 14.5957 89.6247 14.2498 88.5098 14.2173H87.2036ZM102.914 29.2441C101.14 29.2441 99.7565 28.7152 98.7637 27.6572C97.7708 26.5993 97.2744 25.0856 97.2744 23.1162V22.0664C97.2744 19.9831 97.7301 18.3758 98.6416 17.2446C99.5531 16.1134 100.859 15.5479 102.56 15.5479C104.22 15.5479 105.469 16.0809 106.308 17.147C107.146 18.2049 107.573 19.7756 107.589 21.8589V23.5557H100.717C100.766 24.5322 100.981 25.2484 101.364 25.7041C101.746 26.1517 102.336 26.3755 103.134 26.3755C104.289 26.3755 105.254 25.9808 106.027 25.1914L107.382 27.2788C106.959 27.8647 106.344 28.3408 105.539 28.707C104.733 29.0651 103.858 29.2441 102.914 29.2441ZM100.741 21.1387H104.196V20.8213C104.18 20.0319 104.049 19.4338 103.805 19.0269C103.561 18.62 103.138 18.4165 102.536 18.4165C101.933 18.4165 101.494 18.6322 101.217 19.0635C100.949 19.4948 100.79 20.1865 100.741 21.1387ZM113.705 24.1172L115.377 15.792H118.979L115.353 29H112.057L108.419 15.792H112.033L113.705 24.1172ZM124.228 29H120.761V15.792H124.228V29ZM120.602 12.374C120.602 11.8369 120.773 11.3975 121.115 11.0557C121.457 10.7139 121.912 10.543 122.482 10.543C123.052 10.543 123.507 10.7139 123.849 11.0557C124.191 11.3975 124.362 11.8369 124.362 12.374C124.362 12.903 124.191 13.3424 123.849 13.6924C123.515 14.0423 123.06 14.2173 122.482 14.2173C121.904 14.2173 121.444 14.0423 121.103 13.6924C120.769 13.3424 120.602 12.903 120.602 12.374ZM131.674 26.3755C132.675 26.3755 133.183 25.7244 133.2 24.4224H136.447C136.431 25.8628 135.987 27.0265 135.116 27.9136C134.245 28.8006 133.122 29.2441 131.747 29.2441C130.046 29.2441 128.748 28.7152 127.853 27.6572C126.958 26.5993 126.502 25.0409 126.486 22.9819V21.9321C126.486 19.8569 126.925 18.2741 127.804 17.1836C128.691 16.0931 129.997 15.5479 131.723 15.5479C133.179 15.5479 134.327 15.9995 135.165 16.9028C136.003 17.798 136.431 19.0716 136.447 20.7236H133.2C133.192 19.9831 133.069 19.4134 132.833 19.0146C132.597 18.6159 132.207 18.4165 131.662 18.4165C131.059 18.4165 130.628 18.6322 130.368 19.0635C130.107 19.4867 129.969 20.3127 129.953 21.5415V22.8843C129.953 23.9585 130.006 24.7113 130.111 25.1426C130.217 25.5658 130.392 25.8791 130.636 26.0825C130.88 26.2778 131.226 26.3755 131.674 26.3755ZM143.734 29.2441C141.96 29.2441 140.577 28.7152 139.584 27.6572C138.591 26.5993 138.095 25.0856 138.095 23.1162V22.0664C138.095 19.9831 138.55 18.3758 139.462 17.2446C140.373 16.1134 141.68 15.5479 143.38 15.5479C145.041 15.5479 146.29 16.0809 147.128 17.147C147.966 18.2049 148.393 19.7756 148.41 21.8589V23.5557H141.537C141.586 24.5322 141.802 25.2484 142.184 25.7041C142.567 26.1517 143.157 26.3755 143.954 26.3755C145.11 26.3755 146.074 25.9808 146.847 25.1914L148.202 27.2788C147.779 27.8647 147.165 28.3408 146.359 28.707C145.553 29.0651 144.678 29.2441 143.734 29.2441ZM141.562 21.1387H145.016V20.8213C145 20.0319 144.87 19.4338 144.625 19.0269C144.381 18.62 143.958 18.4165 143.356 18.4165C142.754 18.4165 142.314 18.6322 142.038 19.0635C141.769 19.4948 141.61 20.1865 141.562 21.1387Z" fill="#ffffff"/>
</svg>
