<svg width="165" height="52" viewBox="0 0 165 52" fill="none" xmlns="http://www.w3.org/2000/svg">
<path d="M24.9355 24.3369C24.9355 23.6126 24.7484 23.0674 24.374 22.7012C24.0078 22.3268 23.3364 21.9403 22.3599 21.5415C20.5776 20.866 19.2959 20.0767 18.5146 19.1733C17.7334 18.2619 17.3428 17.1877 17.3428 15.9507C17.3428 14.4533 17.8717 13.2529 18.9297 12.3496C19.9958 11.4382 21.3467 10.9824 22.9824 10.9824C24.0729 10.9824 25.0454 11.2144 25.8999 11.6782C26.7544 12.134 27.4095 12.7809 27.8652 13.6191C28.3291 14.4574 28.561 15.4095 28.561 16.4756H24.9844C24.9844 15.6455 24.8053 15.0148 24.4473 14.5835C24.0973 14.144 23.5887 13.9243 22.9214 13.9243C22.2948 13.9243 21.8065 14.1115 21.4565 14.4858C21.1066 14.8521 20.9316 15.3485 20.9316 15.9751C20.9316 16.4634 21.127 16.9069 21.5176 17.3057C21.9082 17.6963 22.5999 18.1032 23.5928 18.5264C25.3262 19.153 26.5835 19.922 27.3647 20.8335C28.1541 21.745 28.5488 22.9046 28.5488 24.3125C28.5488 25.8587 28.0565 27.0672 27.0718 27.938C26.0871 28.8088 24.7484 29.2441 23.0557 29.2441C21.9082 29.2441 20.8625 29.0081 19.9185 28.5361C18.9744 28.0641 18.2339 27.3887 17.6968 26.5098C17.1678 25.6309 16.9033 24.5933 16.9033 23.397H20.5044C20.5044 24.4224 20.7038 25.167 21.1025 25.6309C21.5013 26.0947 22.1523 26.3267 23.0557 26.3267C24.3089 26.3267 24.9355 25.6634 24.9355 24.3369ZM36.0928 29.2441C34.3187 29.2441 32.9352 28.7152 31.9424 27.6572C30.9495 26.5993 30.4531 25.0856 30.4531 23.1162V22.0664C30.4531 19.9831 30.9089 18.3758 31.8203 17.2446C32.7318 16.1134 34.0379 15.5479 35.7388 15.5479C37.3989 15.5479 38.6481 16.0809 39.4863 17.147C40.3245 18.2049 40.7518 19.7756 40.7681 21.8589V23.5557H33.8955C33.9443 24.5322 34.16 25.2484 34.5425 25.7041C34.925 26.1517 35.515 26.3755 36.3125 26.3755C37.4681 26.3755 38.4325 25.9808 39.2056 25.1914L40.5605 27.2788C40.1374 27.8647 39.5229 28.3408 38.7173 28.707C37.9116 29.0651 37.0368 29.2441 36.0928 29.2441ZM33.9199 21.1387H37.3745V20.8213C37.3582 20.0319 37.228 19.4338 36.9839 19.0269C36.7397 18.62 36.3166 18.4165 35.7144 18.4165C35.1121 18.4165 34.6727 18.6322 34.396 19.0635C34.1274 19.4948 33.9688 20.1865 33.9199 21.1387ZM49.2397 19.1245L48.0923 19.0269C47.1483 19.0269 46.5094 19.4419 46.1758 20.272V29H42.709V15.792H45.9683L46.0659 17.2202C46.6112 16.1053 47.3639 15.5479 48.3242 15.5479C48.7148 15.5479 49.0322 15.6007 49.2764 15.7065L49.2397 19.1245ZM55.5752 24.1172L57.2476 15.792H60.8486L57.2231 29H53.9272L50.2896 15.792H53.9028L55.5752 24.1172ZM66.0977 29H62.6309V15.792H66.0977V29ZM62.4722 12.374C62.4722 11.8369 62.6431 11.3975 62.9849 11.0557C63.3267 10.7139 63.7824 10.543 64.3521 10.543C64.9217 10.543 65.3774 10.7139 65.7192 11.0557C66.061 11.3975 66.2319 11.8369 66.2319 12.374C66.2319 12.903 66.061 13.3424 65.7192 13.6924C65.3856 14.0423 64.9299 14.2173 64.3521 14.2173C63.7743 14.2173 63.3145 14.0423 62.9727 13.6924C62.639 13.3424 62.4722 12.903 62.4722 12.374ZM73.5439 26.3755C74.5449 26.3755 75.0535 25.7244 75.0698 24.4224H78.3169C78.3006 25.8628 77.8571 27.0265 76.9863 27.9136C76.1156 28.8006 74.9925 29.2441 73.6172 29.2441C71.9163 29.2441 70.6183 28.7152 69.7231 27.6572C68.828 26.5993 68.3722 25.0409 68.356 22.9819V21.9321C68.356 19.8569 68.7954 18.2741 69.6743 17.1836C70.5614 16.0931 71.8675 15.5479 73.5928 15.5479C75.0495 15.5479 76.1969 15.9995 77.0352 16.9028C77.8734 17.798 78.3006 19.0716 78.3169 20.7236H75.0698C75.0617 19.9831 74.9396 19.4134 74.7036 19.0146C74.4676 18.6159 74.077 18.4165 73.5317 18.4165C72.9295 18.4165 72.4982 18.6322 72.2378 19.0635C71.9774 19.4867 71.839 20.3127 71.8228 21.5415V22.8843C71.8228 23.9585 71.8757 24.7113 71.9814 25.1426C72.0872 25.5658 72.2622 25.8791 72.5063 26.0825C72.7505 26.2778 73.0964 26.3755 73.5439 26.3755ZM85.6045 29.2441C83.8304 29.2441 82.4469 28.7152 81.4541 27.6572C80.4613 26.5993 79.9648 25.0856 79.9648 23.1162V22.0664C79.9648 19.9831 80.4206 18.3758 81.332 17.2446C82.2435 16.1134 83.5496 15.5479 85.2505 15.5479C86.9106 15.5479 88.1598 16.0809 88.998 17.147C89.8363 18.2049 90.2635 19.7756 90.2798 21.8589V23.5557H83.4072C83.4561 24.5322 83.6717 25.2484 84.0542 25.7041C84.4367 26.1517 85.0267 26.3755 85.8242 26.3755C86.9798 26.3755 87.9442 25.9808 88.7173 25.1914L90.0723 27.2788C89.6491 27.8647 89.0347 28.3408 88.229 28.707C87.4233 29.0651 86.5485 29.2441 85.6045 29.2441ZM83.4316 21.1387H86.8862V20.8213C86.87 20.0319 86.7397 19.4338 86.4956 19.0269C86.2515 18.62 85.8283 18.4165 85.2261 18.4165C84.6239 18.4165 84.1844 18.6322 83.9077 19.0635C83.6392 19.4948 83.4805 20.1865 83.4316 21.1387ZM98.1655 29V11.2266H102.865C104.94 11.2266 106.592 11.8857 107.821 13.2041C109.058 14.5225 109.689 16.3291 109.713 18.624V21.5049C109.713 23.8405 109.095 25.6756 107.858 27.0103C106.629 28.3368 104.932 29 102.768 29H98.1655ZM101.754 14.2173V26.0215H102.829C104.025 26.0215 104.867 25.7082 105.355 25.0815C105.844 24.4468 106.1 23.3563 106.125 21.8101V18.7217C106.125 17.0615 105.893 15.9059 105.429 15.2549C104.965 14.5957 104.175 14.2498 103.061 14.2173H101.754ZM117.465 29.2441C115.691 29.2441 114.307 28.7152 113.314 27.6572C112.322 26.5993 111.825 25.0856 111.825 23.1162V22.0664C111.825 19.9831 112.281 18.3758 113.192 17.2446C114.104 16.1134 115.41 15.5479 117.111 15.5479C118.771 15.5479 120.02 16.0809 120.858 17.147C121.697 18.2049 122.124 19.7756 122.14 21.8589V23.5557H115.268C115.316 24.5322 115.532 25.2484 115.915 25.7041C116.297 26.1517 116.887 26.3755 117.685 26.3755C118.84 26.3755 119.805 25.9808 120.578 25.1914L121.933 27.2788C121.509 27.8647 120.895 28.3408 120.089 28.707C119.284 29.0651 118.409 29.2441 117.465 29.2441ZM115.292 21.1387H118.747V20.8213C118.73 20.0319 118.6 19.4338 118.356 19.0269C118.112 18.62 117.689 18.4165 117.086 18.4165C116.484 18.4165 116.045 18.6322 115.768 19.0635C115.5 19.4948 115.341 20.1865 115.292 21.1387ZM128.256 24.1172L129.928 15.792H133.529L129.904 29H126.608L122.97 15.792H126.583L128.256 24.1172ZM138.778 29H135.312V15.792H138.778V29ZM135.153 12.374C135.153 11.8369 135.324 11.3975 135.666 11.0557C136.007 10.7139 136.463 10.543 137.033 10.543C137.602 10.543 138.058 10.7139 138.4 11.0557C138.742 11.3975 138.913 11.8369 138.913 12.374C138.913 12.903 138.742 13.3424 138.4 13.6924C138.066 14.0423 137.611 14.2173 137.033 14.2173C136.455 14.2173 135.995 14.0423 135.653 13.6924C135.32 13.3424 135.153 12.903 135.153 12.374ZM146.225 26.3755C147.226 26.3755 147.734 25.7244 147.75 24.4224H150.998C150.981 25.8628 150.538 27.0265 149.667 27.9136C148.796 28.8006 147.673 29.2441 146.298 29.2441C144.597 29.2441 143.299 28.7152 142.404 27.6572C141.509 26.5993 141.053 25.0409 141.037 22.9819V21.9321C141.037 19.8569 141.476 18.2741 142.355 17.1836C143.242 16.0931 144.548 15.5479 146.273 15.5479C147.73 15.5479 148.878 15.9995 149.716 16.9028C150.554 17.798 150.981 19.0716 150.998 20.7236H147.75C147.742 19.9831 147.62 19.4134 147.384 19.0146C147.148 18.6159 146.758 18.4165 146.212 18.4165C145.61 18.4165 145.179 18.6322 144.918 19.0635C144.658 19.4867 144.52 20.3127 144.503 21.5415V22.8843C144.503 23.9585 144.556 24.7113 144.662 25.1426C144.768 25.5658 144.943 25.8791 145.187 26.0825C145.431 26.2778 145.777 26.3755 146.225 26.3755ZM158.285 29.2441C156.511 29.2441 155.128 28.7152 154.135 27.6572C153.142 26.5993 152.646 25.0856 152.646 23.1162V22.0664C152.646 19.9831 153.101 18.3758 154.013 17.2446C154.924 16.1134 156.23 15.5479 157.931 15.5479C159.591 15.5479 160.84 16.0809 161.679 17.147C162.517 18.2049 162.944 19.7756 162.96 21.8589V23.5557H156.088C156.137 24.5322 156.352 25.2484 156.735 25.7041C157.117 26.1517 157.707 26.3755 158.505 26.3755C159.66 26.3755 160.625 25.9808 161.398 25.1914L162.753 27.2788C162.33 27.8647 161.715 28.3408 160.91 28.707C160.104 29.0651 159.229 29.2441 158.285 29.2441ZM156.112 21.1387H159.567V20.8213C159.551 20.0319 159.42 19.4338 159.176 19.0269C158.932 18.62 158.509 18.4165 157.907 18.4165C157.305 18.4165 156.865 18.6322 156.588 19.0635C156.32 19.4948 156.161 20.1865 156.112 21.1387Z" fill="#203C42"/>
<path d="M18.9473 44.9609L20.2363 40.6602H21.7539L19.2344 47.9609C18.8477 49.0273 18.1914 49.5605 17.2656 49.5605C17.0586 49.5605 16.8301 49.5254 16.5801 49.4551V48.3535L16.8496 48.3711C17.209 48.3711 17.4785 48.3047 17.6582 48.1719C17.8418 48.043 17.9863 47.8242 18.0918 47.5156L18.2969 46.9707L16.0703 40.6602H17.6055L18.9473 44.9609ZM26.3418 45.248L28.2168 40.6602H29.998V47H28.5742V42.8047L26.8281 47H25.8613L24.1094 42.7812V47H22.6855V40.6602H24.4785L26.3418 45.248ZM36.9707 47H35.5469V44.4395H33.0801V47H31.6562V40.6602H33.0801V43.3027H35.5469V40.6602H36.9707V47ZM40.0234 42.6758H41.418C41.9375 42.6758 42.3906 42.7656 42.7773 42.9453C43.1641 43.125 43.457 43.377 43.6562 43.7012C43.8594 44.0254 43.9609 44.4023 43.9609 44.832C43.9609 45.4844 43.7305 46.0078 43.2695 46.4023C42.8086 46.7969 42.1953 46.9961 41.4297 47H38.5996V40.6602H40.0234V42.6758ZM46.4395 47H45.0156V40.6602H46.4395V47ZM40.0234 43.8184V45.8633H41.4121C41.7598 45.8633 42.0332 45.7773 42.2324 45.6055C42.4355 45.4297 42.5371 45.1816 42.5371 44.8613C42.5371 44.541 42.4375 44.2891 42.2383 44.1055C42.043 43.918 41.7773 43.8223 41.4414 43.8184H40.0234ZM50.9395 47.1172C50.0371 47.1172 49.3047 46.834 48.7422 46.2676C48.1836 45.6973 47.9043 44.9395 47.9043 43.9941V43.8184C47.9043 43.1855 48.0254 42.6211 48.2676 42.125C48.5137 41.625 48.8574 41.2363 49.2988 40.959C49.7402 40.6816 50.2324 40.543 50.7754 40.543C51.6387 40.543 52.3047 40.8184 52.7734 41.3691C53.2461 41.9199 53.4824 42.6992 53.4824 43.707V44.2812H49.3398C49.3828 44.8047 49.5566 45.2188 49.8613 45.5234C50.1699 45.8281 50.5566 45.9805 51.0215 45.9805C51.6738 45.9805 52.2051 45.7168 52.6152 45.1895L53.3828 45.9219C53.1289 46.3008 52.7891 46.5957 52.3633 46.8066C51.9414 47.0137 51.4668 47.1172 50.9395 47.1172ZM50.7695 41.6855C50.3789 41.6855 50.0625 41.8223 49.8203 42.0957C49.582 42.3691 49.4297 42.75 49.3633 43.2383H52.0762V43.1328C52.0449 42.6562 51.918 42.2969 51.6953 42.0547C51.4727 41.8086 51.1641 41.6855 50.7695 41.6855ZM62.5703 41.791H60.5137V47H59.0898V41.791H57.0566V40.6602H62.5703V41.791ZM65.9395 47.1172C65.0371 47.1172 64.3047 46.834 63.7422 46.2676C63.1836 45.6973 62.9043 44.9395 62.9043 43.9941V43.8184C62.9043 43.1855 63.0254 42.6211 63.2676 42.125C63.5137 41.625 63.8574 41.2363 64.2988 40.959C64.7402 40.6816 65.2324 40.543 65.7754 40.543C66.6387 40.543 67.3047 40.8184 67.7734 41.3691C68.2461 41.9199 68.4824 42.6992 68.4824 43.707V44.2812H64.3398C64.3828 44.8047 64.5566 45.2188 64.8613 45.5234C65.1699 45.8281 65.5566 45.9805 66.0215 45.9805C66.6738 45.9805 67.2051 45.7168 67.6152 45.1895L68.3828 45.9219C68.1289 46.3008 67.7891 46.5957 67.3633 46.8066C66.9414 47.0137 66.4668 47.1172 65.9395 47.1172ZM65.7695 41.6855C65.3789 41.6855 65.0625 41.8223 64.8203 42.0957C64.582 42.3691 64.4297 42.75 64.3633 43.2383H67.0762V43.1328C67.0449 42.6562 66.918 42.2969 66.6953 42.0547C66.4727 41.8086 66.1641 41.6855 65.7695 41.6855ZM71.8691 42.7461L73.0762 40.6602H74.6582L72.7188 43.7832L74.7227 47H73.1523L71.8867 44.832L70.627 47H69.0449L71.0488 43.7832L69.1152 40.6602H70.6855L71.8691 42.7461ZM80.998 47H79.5742V44.4395H77.1074V47H75.6836V40.6602H77.1074V43.3027H79.5742V40.6602H80.998V47ZM82.252 43.7715C82.252 43.1504 82.375 42.5918 82.6211 42.0957C82.8672 41.5957 83.2129 41.2129 83.6582 40.9473C84.1035 40.6777 84.6152 40.543 85.1934 40.543C86.0488 40.543 86.7422 40.8184 87.2734 41.3691C87.8086 41.9199 88.0977 42.6504 88.1406 43.5605L88.1465 43.8945C88.1465 44.5195 88.0254 45.0781 87.7832 45.5703C87.5449 46.0625 87.2012 46.4434 86.752 46.7129C86.3066 46.9824 85.791 47.1172 85.2051 47.1172C84.3105 47.1172 83.5938 46.8203 83.0547 46.2266C82.5195 45.6289 82.252 44.834 82.252 43.8418V43.7715ZM83.6758 43.8945C83.6758 44.5469 83.8105 45.0586 84.0801 45.4297C84.3496 45.7969 84.7246 45.9805 85.2051 45.9805C85.6855 45.9805 86.0586 45.793 86.3242 45.418C86.5938 45.043 86.7285 44.4941 86.7285 43.7715C86.7285 43.1309 86.5898 42.623 86.3125 42.248C86.0391 41.873 85.666 41.6855 85.1934 41.6855C84.7285 41.6855 84.3594 41.8711 84.0859 42.2422C83.8125 42.6094 83.6758 43.1602 83.6758 43.8945ZM94.6445 40.6602V47H93.2207V41.8086H91.4277L91.3105 44.0176C91.2363 45.0801 91.0312 45.8438 90.6953 46.3086C90.3633 46.7695 89.8535 47 89.166 47H88.7266L88.7207 45.8164L89.0137 45.7871C89.3262 45.7441 89.5527 45.5547 89.6934 45.2188C89.8379 44.8789 89.9297 44.2617 89.9688 43.3672L90.0859 40.6602H94.6445ZM95.8926 43.7715C95.8926 43.1504 96.0156 42.5918 96.2617 42.0957C96.5078 41.5957 96.8535 41.2129 97.2988 40.9473C97.7441 40.6777 98.2559 40.543 98.834 40.543C99.6895 40.543 100.383 40.8184 100.914 41.3691C101.449 41.9199 101.738 42.6504 101.781 43.5605L101.787 43.8945C101.787 44.5195 101.666 45.0781 101.424 45.5703C101.186 46.0625 100.842 46.4434 100.393 46.7129C99.9473 46.9824 99.4316 47.1172 98.8457 47.1172C97.9512 47.1172 97.2344 46.8203 96.6953 46.2266C96.1602 45.6289 95.8926 44.834 95.8926 43.8418V43.7715ZM97.3164 43.8945C97.3164 44.5469 97.4512 45.0586 97.7207 45.4297C97.9902 45.7969 98.3652 45.9805 98.8457 45.9805C99.3262 45.9805 99.6992 45.793 99.9648 45.418C100.234 45.043 100.369 44.4941 100.369 43.7715C100.369 43.1309 100.23 42.623 99.9531 42.248C99.6797 41.873 99.3066 41.6855 98.834 41.6855C98.3691 41.6855 98 41.8711 97.7266 42.2422C97.4531 42.6094 97.3164 43.1602 97.3164 43.8945ZM107.213 41.8086H104.459V47H103.041V40.6602H107.213V41.8086ZM111.977 40.6602H113.395V47H111.977V42.7695L109.492 47H108.074V40.6602H109.492V44.8906L111.977 40.6602ZM118.867 40.6602H120.285V47H118.867V42.7695L116.383 47H114.965V40.6602H116.383V44.8906L118.867 40.6602Z" fill="#788891"/>
</svg>
